<svg xmlns="http://www.w3.org/2000/svg" width="516.618" height="101.053" viewBox="0 0 516.618 101.053">
  <g id="stars-4" transform="translate(0 -205.012)">
    <g id="Group_1" data-name="Group 1">
      <path id="Path_1" data-name="Path 1" d="M29.984,266.88,18.528,302.136l29.984-21.8,29.968,21.8L67.048,266.88,97.016,245.1H59.968l-11.456-35.24L37.056,245.1H0Z" fill="#af8447"/>
      <path id="Path_2" data-name="Path 2" d="M163.712,245.1l-11.456-35.24L140.8,245.1H103.744l29.984,21.776-11.456,35.256,29.984-21.8,29.984,21.8L170.784,266.88,200.776,245.1Z" fill="#af8447"/>
      <path id="Path_3" data-name="Path 3" d="M267.456,245.1,256,209.864,244.544,245.1H207.488l29.984,21.776-11.456,35.256L256,280.336l29.984,21.8L274.528,266.88,304.512,245.1Z" fill="#af8447"/>
      <path id="Path_4" data-name="Path 4" d="M371.2,245.1l-11.456-35.24L348.288,245.1H311.224l29.992,21.776L329.76,302.136l29.984-21.8,29.984,21.8L378.272,266.88,408.256,245.1Z" fill="#af8447"/>
      <path id="Subtraction_1" data-name="Subtraction 1" d="M-2434.078,58.136v0l11.694-35.254L-2453,1.1h37.835l11.2-33.74V36.69l-30.108,21.444Z" transform="translate(2867.968 244)" fill="#af8447"/>
    </g>
    <path id="Path_5" data-name="Path 5" d="M474.944,245.1l-11.456-35.24L452.032,245.1H414.984l29.968,21.776L433.5,302.136l29.992-21.8,29.984,21.8L482.016,266.88,512,245.1Z" fill="none" stroke="#af8447" stroke-width="3"/>
  </g>
</svg>
